<?xml version="1.0" encoding="UTF-8" standalone="no"?>
<svg width="120px" height="120px" viewBox="0 0 120 120" version="1.1" xmlns="http://www.w3.org/2000/svg" xmlns:xlink="http://www.w3.org/1999/xlink" xmlns:sketch="http://www.bohemiancoding.com/sketch/ns">
    <!-- Generator: Sketch 3.2.1 (9971) - http://www.bohemiancoding.com/sketch -->
    <title>cg-logo</title>
    <desc>Created with Sketch.</desc>
    <defs>
        <path id="path-1" d="M60,120 C93.1370866,120 120,93.1370866 120,60 C120,26.8629134 93.1370866,7.10542736e-15 60,7.10542736e-15 C26.8629134,7.10542736e-15 -1.42108547e-14,26.8629134 -1.42108547e-14,60 C-1.42108547e-14,93.1370866 26.8629134,120 60,120 Z"></path>
    </defs>
    <g id="Page-1" stroke="none" stroke-width="1" fill="none" fill-rule="evenodd" sketch:type="MSPage">
        <g id="cg-logo" sketch:type="MSArtboardGroup">
            <g id="logo" sketch:type="MSLayerGroup" transform="translate(60.000000, 60.000000) rotate(-315.000000) translate(-60.000000, -60.000000) ">
                <mask id="mask-2" sketch:name="Oval 16" fill="white">
                    <use xlink:href="#path-1"></use>
                </mask>
                <use id="Oval-16" fill="#EF7C00" sketch:type="MSShapeGroup" xlink:href="#path-1"></use>
                <g id="DNA" mask="url(#mask-2)" fill="#FFFFFF" sketch:type="MSShapeGroup">
                    <g transform="translate(-12.000000, -13.200000)" id="Rectangle-7">
                        <rect x="8.10018719e-14" y="40.2" width="82.2" height="12"></rect>
                        <rect x="31.2" y="63.6" width="73.8" height="12"></rect>
                        <rect x="70.2" y="102" width="61.2" height="12"></rect>
                        <rect transform="translate(99.000000, 103.500000) rotate(-270.000000) translate(-99.000000, -103.500000) " x="59.1" y="97.5" width="79.8" height="12"></rect>
                        <rect transform="translate(76.200000, 77.100000) rotate(-270.000000) translate(-76.200000, -77.100000) " x="39.3" y="71.1" width="73.8" height="12"></rect>
                        <rect transform="translate(37.200000, 37.800000) rotate(-270.000000) translate(-37.200000, -37.800000) " x="-0.6" y="31.8" width="75.6" height="12"></rect>
                    </g>
                </g>
                <g id="Shadows" mask="url(#mask-2)" fill="#EF7C00" sketch:type="MSShapeGroup">
                    <g transform="translate(15.600000, 39.000000)" id="Rectangle-12">
                        <rect x="0" y="0" width="18.6" height="4.2"></rect>
                        <rect x="38.4" y="23.4" width="18.6" height="4.2"></rect>
                        <rect x="63" y="61.8" width="18.6" height="4.2"></rect>
                    </g>
                </g>
            </g>
        </g>
    </g>
</svg>
